HIERARCHY
ROOT Hips
{
	OFFSET -0.179506 -22.333345 2.821913
	CHANNELS 6 Xposition Yposition Zposition Zrotation Yrotation Xrotation 
	JOINT LeftUpLeg
	{
		OFFSET 6.951974 -9.140623 -0.681533
		CHANNELS 3 Zrotation Yrotation Xrotation
		JOINT LeftLeg
		{
			OFFSET 3.427654 -37.519855 -0.449580
			CHANNELS 3 Zrotation Yrotation Xrotation
			JOINT LeftFoot
			{
				OFFSET -1.359570 -39.796059 -4.369333
				CHANNELS 3 Zrotation Yrotation Xrotation
				JOINT LeftToe
				{
					OFFSET 2.635814 -5.579078 11.928840
					CHANNELS 3 Zrotation Yrotation Xrotation
					End Site
					{
						OFFSET 0.000000 0.000000 0.000000
					}
				}
			}
		}
	}
	JOINT RightUpLeg
	{
		OFFSET -6.767048 -9.052170 -0.431982
		CHANNELS 3 Zrotation Yrotation Xrotation
		JOINT RightLeg
		{
			OFFSET -3.829005 -38.256897 -0.885003
			CHANNELS 3 Zrotation Yrotation Xrotation
			JOINT RightFoot
			{
				OFFSET 1.577377 -39.841461 -4.231180
				CHANNELS 3 Zrotation Yrotation Xrotation
				JOINT RightToe
				{
					OFFSET -2.537174 -4.814398 12.334795
					CHANNELS 3 Zrotation Yrotation Xrotation
					End Site
					{
						OFFSET 0.000000 0.000000 0.000000
					}
				}
			}
		}
	}
	JOINT Spine
	{
		OFFSET -0.253288 10.896323 -2.669631
		CHANNELS 3 Zrotation Yrotation Xrotation
		JOINT Spine1
		{
			OFFSET 0.548704 13.518043 0.109247
			CHANNELS 3 Zrotation Yrotation Xrotation
			JOINT Spine2
			{
				OFFSET 0.145701 5.292222 2.542457
				CHANNELS 3 Zrotation Yrotation Xrotation
				JOINT Neck
				{
					OFFSET -0.277840 21.387037 -4.285703
					CHANNELS 3 Zrotation Yrotation Xrotation
					JOINT Head
					{
						OFFSET 0.515184 6.496960 5.134897
						CHANNELS 3 Zrotation Yrotation Xrotation
						End Site
						{
							OFFSET 0.000000 0.000000 0.000000
						}
					}
				}
				JOINT LeftShoulder
				{
					OFFSET 7.884473 12.174932 -3.408961
					CHANNELS 3 Zrotation Yrotation Xrotation
					JOINT LeftArm
					{
						OFFSET 9.097692 3.046888 -0.886815
						CHANNELS 3 Zrotation Yrotation Xrotation
						JOINT LeftForeArm
						{
							OFFSET 25.961220 -1.277207 -2.745643
							CHANNELS 3 Zrotation Yrotation Xrotation
							JOINT LeftHand
							{
								OFFSET 24.923361 0.898606 -0.117091
								CHANNELS 3 Zrotation Yrotation Xrotation
								End Site
								{
									OFFSET 0.000000 0.000000 0.000000
								}
							}
						}
					}
				}
				JOINT RightShoulder
				{
					OFFSET -8.175920 11.883285 -3.861528
					CHANNELS 3 Zrotation Yrotation Xrotation
					JOINT RightArm
					{
						OFFSET -9.601238 3.255117 -0.914307
						CHANNELS 3 Zrotation Yrotation Xrotation
						JOINT RightForeArm
						{
							OFFSET -25.374195 -1.332924 -2.140099
							CHANNELS 3 Zrotation Yrotation Xrotation
							JOINT RightHand
							{
								OFFSET -25.529810 0.777228 -0.555919
								CHANNELS 3 Zrotation Yrotation Xrotation
								End Site
								{
									OFFSET 0.000000 0.000000 0.000000
								}
							}
						}
					}
				}
			}
		}
	}
}
MOTION
Frames: 17
Frame Time: 0.033333
60.197159 53.732662 92.286774 -176.177877 -0.217760 91.324309 2.810841 0.873925 0.175474 -5.271202 -3.501190 -4.350901 4.396575 9.114399 -4.894803 nan nan nan -4.772780 -4.000645 -1.142714 4.405882 -3.736076 -0.473894 2.065301 -8.131427 -5.950514 nan nan nan -0.655073 1.325816 2.485287 1.914420 -3.590817 6.050978 0.538986 -1.012153 -2.405294 0.223396 -0.691974 18.054307 1.852315 -0.052261 38.310060 -29.961076 -1.267524 6.424884 -55.524672 -11.498885 17.441225 5.965726 -16.427851 11.161629 -12.860316 -16.744061 1.771538 30.391424 2.949105 6.220548 54.510110 8.447908 16.465331 -13.676280 20.562772 -2.368580 10.870098 10.134962 -2.990769 
60.201725 53.718681 92.288078 -176.118533 -0.213587 91.358177 2.823021 0.833361 0.098225 -5.271406 -3.479548 -4.308356 4.366069 9.085613 -4.891512 nan nan nan -4.765614 -3.984280 -1.171673 4.413939 -3.758539 -0.485821 2.033691 -8.156282 -5.939047 nan nan nan -0.665955 1.308654 2.466551 1.921852 -3.604099 6.049726 0.551249 -1.053625 -2.411873 0.213832 -0.649012 18.116466 1.831038 -0.020020 38.425246 -29.949730 -1.250174 6.444621 -55.517161 -11.563005 17.442638 5.917292 -16.381618 11.159992 -12.807464 -16.849744 1.756258 30.408668 2.953891 6.212957 54.484985 8.520500 16.453478 -13.600070 20.539138 -2.470904 10.676662 10.232129 -3.095932 
60.202572 53.695335 92.285789 -176.063197 -0.217438 91.393781 2.833776 0.814420 0.038174 -5.297117 -3.487006 -4.302171 4.355974 9.049973 -4.893480 nan nan nan -4.761872 -3.988722 -1.221229 4.402387 -3.777288 -0.460906 2.060628 -8.160789 -5.916029 nan nan nan -0.662422 1.297466 2.473496 1.909404 -3.617506 6.033304 0.552484 -1.093289 -2.433287 0.216379 -0.607395 18.143627 1.872956 0.046519 38.519626 -29.914366 -1.248917 6.478839 -55.567894 -11.613837 17.459840 5.953563 -16.322193 11.222005 -12.731678 -16.892507 1.704727 30.407184 2.955314 6.236791 54.472803 8.590137 16.434737 -13.509408 20.528571 -2.506880 10.554204 10.281403 -3.217169 
60.204735 53.684418 92.284889 -176.053660 -0.200388 91.393831 2.859252 0.844760 0.055067 -5.311892 -3.510515 -4.351050 4.364949 9.045389 -4.876308 nan nan nan -4.733157 -4.013126 -1.216842 4.409228 -3.784207 -0.495667 2.065421 -8.154409 -5.865240 nan nan nan -0.654686 1.312080 2.501498 1.912377 -3.627374 6.029904 0.554687 -1.102211 -2.451092 0.241129 -0.598782 18.221242 1.929699 0.076933 38.502485 -29.915829 -1.216330 6.465576 -55.580797 -11.639754 17.477892 5.953851 -16.341625 11.311931 -12.706327 -16.827997 1.620343 30.432924 2.942487 6.263399 54.434441 8.596520 16.454752 -13.504836 20.587693 -2.493482 10.616375 10.267593 -3.291275 
60.204418 53.681660 92.286766 -176.059022 -0.195773 91.370177 2.863371 0.872041 0.086839 -5.318269 -3.529691 -4.358538 4.302415 9.067869 -4.903953 nan nan nan -4.722290 -4.014585 -1.192124 4.425766 -3.800323 -0.509111 2.048807 -8.193879 -5.865793 nan nan nan -0.663555 1.287815 2.546658 1.918171 -3.627503 6.003188 0.561789 -1.074228 -2.428111 0.250654 -0.582605 18.287798 1.954209 0.078063 38.553067 -29.936602 -1.160800 6.420487 -55.549549 -11.679095 17.453648 5.883320 -16.376668 11.351197 -12.723039 -16.740179 1.575369 30.414807 2.937998 6.284032 54.455909 8.606737 16.490717 -13.547812 20.633434 -2.518729 10.722024 10.263893 -3.421264 
60.208614 53.679741 92.287491 -176.099890 -0.193925 91.398103 2.841261 0.886375 0.079720 -5.296558 -3.555963 -4.373931 4.178480 9.111123 -4.950017 nan nan nan -4.743181 -4.028403 -1.336427 4.465452 -3.820782 -0.296300 2.058590 -8.176856 -5.941243 nan nan nan -0.653739 1.276791 2.498702 1.913740 -3.593397 6.056261 0.540286 -1.075572 -2.453719 0.229522 -0.567857 18.338917 1.979453 0.040077 38.642212 -29.948839 -1.191716 6.432135 -55.548272 -11.665366 17.445124 5.932351 -16.408739 11.223964 -12.747799 -16.724232 1.658510 30.403299 2.965170 6.310606 54.500713 8.614523 16.495822 -13.611643 20.635351 -2.539211 10.735881 10.275614 -3.413677 
60.212151 53.677662 92.290421 -176.153025 -0.192879 91.446915 2.813987 0.901536 0.037454 -5.256434 -3.573749 -4.361745 4.131148 9.139034 -4.967025 nan nan nan -4.769463 -4.092688 -1.581684 4.473300 -3.833021 0.055050 2.072548 -8.063605 -6.074810 nan nan nan -0.651046 1.278998 2.411649 1.924715 -3.564151 6.166339 0.506104 -1.071396 -2.522889 0.197597 -0.585153 18.428618 1.986363 -0.019611 38.609013 -29.957801 -1.271103 6.428561 -55.564732 -11.591500 17.475866 6.010004 -16.475496 10.951500 -12.749789 -16.664808 1.784112 30.412571 3.012226 6.318139 54.509142 8.576192 16.487274 -13.680549 20.646953 -2.540293 10.719772 10.232879 -3.206041 
60.214458 53.689713 92.294014 -176.174285 -0.199535 91.427574 2.816015 0.915086 0.061463 -5.256620 -3.575959 -4.340265 4.140120 9.135566 -4.980815 nan nan nan -4.763986 -4.094350 -1.548904 4.420005 -3.797680 0.037600 2.066712 -8.019368 -6.077141 nan nan nan -0.677224 1.276058 2.405951 1.929442 -3.569405 6.214396 0.498224 -1.036610 -2.545256 0.224929 -0.635873 18.506543 1.995717 -0.036450 38.573953 -29.958191 -1.285997 6.391807 -55.553973 -11.555765 17.500926 5.997839 -16.558021 10.846989 -12.748693 -16.575624 1.822096 30.393015 3.020316 6.288154 54.527324 8.540639 16.488687 -13.729276 20.669562 -2.561587 10.741571 10.182145 -3.099727 
60.216095 53.713875 92.295616 -176.212033 -0.207353 91.381371 2.820042 0.937450 0.160369 -5.263063 -3.577506 -4.412787 4.189535 9.135369 -4.953963 nan nan nan -4.756622 -4.065122 -1.390252 4.377014 -3.756952 -0.161357 2.062065 -7.996550 -6.021308 nan nan nan -0.685750 1.286856 2.408967 1.909938 -3.572933 6.246600 0.488397 -0.996637 -2.544738 0.270415 -0.669327 18.602646 1.986508 -0.010499 38.574390 -29.970901 -1.301941 6.384019 -55.509124 -11.532093 17.494084 5.960648 -16.648760 10.807206 -12.746874 -16.451541 1.810725 30.347116 3.023948 6.276833 54.575303 8.516114 16.494510 -13.764118 20.681723 -2.583943 10.812468 10.101440 -3.062975 
60.213680 53.720825 92.292107 -176.237128 -0.213179 91.365947 2.813195 0.946686 0.205440 -5.255119 -3.556209 -4.489613 4.343606 9.126941 -4.839131 nan nan nan -4.782505 -4.052109 -1.354735 4.405411 -3.773023 -0.207508 2.099447 -7.985689 -6.019343 nan nan nan -0.663089 1.288127 2.427558 1.885451 -3.584862 6.254572 0.472608 -0.968264 -2.578450 0.278025 -0.695904 18.661147 1.935041 0.014159 38.640528 -29.989168 -1.321774 6.402403 -55.459731 -11.517768 17.486612 5.908328 -16.704460 10.748817 -12.703926 -16.367865 1.778559 30.309337 3.040617 6.280331 54.601293 8.524736 16.502724 -13.742456 20.644246 -2.619449 10.837926 10.056136 -3.028440 
60.208683 53.716484 92.286530 -176.245208 -0.210439 91.378475 2.799995 0.932872 0.189715 -5.235031 -3.527980 -4.506857 4.416265 9.112459 -4.785882 nan nan nan -4.802454 -4.072207 -1.376549 4.465444 -3.810450 -0.192690 2.145408 -8.002392 -6.054626 nan nan nan -0.631016 1.301011 2.405027 1.870639 -3.578407 6.272626 0.447209 -0.991844 -2.583531 0.284057 -0.695515 18.656337 1.925338 -0.000643 38.761648 -29.987195 -1.305840 6.414020 -55.445845 -11.563824 17.488433 5.886558 -16.699400 10.797201 -12.632327 -16.456746 1.837086 30.303926 3.034013 6.274034 54.600633 8.581329 16.501579 -13.703684 20.613325 -2.641265 10.773553 10.109326 -3.023304 
60.206352 53.702618 92.280373 -176.217912 -0.191244 91.385509 2.796504 0.891161 0.152753 -5.201073 -3.545978 -4.485905 4.418941 9.116310 -4.808079 nan nan nan -4.792835 -4.076528 -1.385724 4.502010 -3.833025 -0.195442 2.109424 -8.029940 -6.002862 nan nan nan -0.592465 1.303099 2.433339 1.871402 -3.570645 6.260486 0.440497 -1.022963 -2.593694 0.248644 -0.721629 18.599263 1.889794 -0.015684 38.882711 -30.014829 -1.291625 6.426975 -55.433677 -11.617597 17.498641 5.909429 -16.696640 10.862142 -12.647340 -16.592847 1.890327 30.335275 3.014524 6.260206 54.561060 8.619156 16.500889 -13.724272 20.628216 -2.681150 10.751166 10.161575 -3.105068 
60.205807 53.685711 92.274872 -176.127838 -0.189979 91.406028 2.813819 0.824684 0.075641 -5.225777 -3.540514 -4.425022 4.412725 9.103597 -4.836917 nan nan nan -4.782440 -4.042763 -1.308015 4.490838 -3.845854 -0.383421 2.045009 -8.094617 -5.858136 nan nan nan -0.600078 1.274603 2.475225 1.884346 -3.601041 6.199363 0.468814 -1.059589 -2.591239 0.192474 -0.729514 18.556732 1.854218 0.011665 38.991113 -30.021010 -1.283807 6.470077 -55.466441 -11.670672 17.493672 5.949214 -16.696572 10.878463 -12.656343 -16.692407 1.819071 30.366215 3.000185 6.303818 54.505099 8.679473 16.489389 -13.706619 20.692592 -2.700446 10.707699 10.221325 -3.232516 
60.212891 53.679352 92.273781 -176.074171 -0.205001 91.430397 2.836361 0.821970 -0.001008 -5.289136 -3.495079 -4.359984 4.425637 9.077347 -4.829869 nan nan nan -4.771777 -3.981541 -1.239227 4.453659 -3.839988 -0.562199 2.015225 -8.147490 -5.815893 nan nan nan -0.635209 1.254491 2.473013 1.895502 -3.635300 6.182972 0.488942 -1.080965 -2.598336 0.149473 -0.691272 18.568844 1.863478 0.011769 39.028709 -30.000646 -1.293142 6.484789 -55.491701 -11.691015 17.484111 5.957724 -16.685919 10.808021 -12.646630 -16.743034 1.793630 30.403691 3.039069 6.368893 54.452007 8.720533 16.480092 -13.670775 20.735633 -2.736529 10.625024 10.269316 -3.299838 
60.221828 53.674488 92.278236 -176.064685 -0.203203 91.438677 2.838030 0.857524 -0.016203 -5.270426 -3.540778 -4.338495 4.450148 9.059610 -4.831407 nan nan nan -4.763914 -3.977205 -1.260094 4.449862 -3.853930 -0.536543 2.022421 -8.151507 -5.863847 nan nan nan -0.649407 1.246403 2.471259 1.908940 -3.653393 6.198751 0.486858 -1.066490 -2.620611 0.112397 -0.687413 18.627907 1.871671 0.005980 38.989115 -29.997880 -1.311944 6.463372 -55.491473 -11.680343 17.489230 5.963715 -16.711408 10.716535 -12.609093 -16.684149 1.786329 30.401641 3.077420 6.369158 54.448383 8.722126 16.469768 -13.652642 20.759464 -2.822580 10.632370 10.260728 -3.359431 
60.223072 53.674870 92.283485 -176.076866 -0.199626 91.444029 2.811644 0.877996 -0.007883 -5.196229 -3.669702 -4.310962 4.481534 9.078921 -4.839049 nan nan nan -4.764921 -3.984445 -1.275436 4.465214 -3.851337 -0.522642 2.056686 -8.137941 -5.889361 nan nan nan -0.653550 1.241810 2.496131 1.920981 -3.673497 6.176558 0.482760 -1.022732 -2.658746 0.045541 -0.698645 18.721877 1.925142 0.044826 38.902338 -30.017238 -1.318109 6.442940 -55.490875 -11.635493 17.528824 5.987383 -16.793455 10.697623 -12.533311 -16.624342 1.745423 30.373839 3.104555 6.364923 54.467695 8.698448 16.463535 -13.646804 20.763005 -2.891181 10.703524 10.226353 -3.422737 
60.219864 53.675571 92.284889 -176.100402 -0.205458 91.449537 2.803013 0.862672 0.019550 -5.192932 -3.703188 -4.359618 4.468921 9.109993 -4.860868 nan nan nan -4.759879 -3.983603 -1.275172 4.455611 -3.808656 -0.545470 2.064098 -8.129651 -5.875462 nan nan nan -0.669352 1.235559 2.508595 1.910617 -3.661232 6.149667 0.493985 -1.017470 -2.660622 0.041056 -0.673436 18.727646 1.978711 0.081978 38.890320 -30.001141 -1.312596 6.447113 -55.526927 -11.637005 17.561271 6.054335 -16.821982 10.766524 -12.492122 -16.676966 1.705636 30.368490 3.094262 6.367550 54.476324 8.726284 16.469065 -13.647563 20.741123 -2.823553 10.685884 10.191244 -3.383274 
